<svg version="1.1" xmlns="http://www.w3.org/2000/svg" xmlns:xlink="http://www.w3.org/1999/xlink" x="0px" y="0px" viewBox="0 0 131 60" enable-background="new 0 0 131 60" xml:space="preserve">
	<g>
		<g>
			<polygon fill="#E91E63" points="20,20 20,0 40,10 		"/>
			<polygon fill="#9C27B0" points="20,20 40,10 40,30 		"/>
			<polygon fill="#673AB7" points="20,40 20,20 40,30 		"/>
			<polygon fill="#3F51B5" points="20,40 40,30 40,50 		"/>
			<polygon fill="#2196F3" points="20,60 20,40 40,50 		"/>
			<polygon fill="#009688" points="0,50 20,40 20,60 		"/>
			<polygon fill="#8BC34A" points="0,50 0,30 20,40 		"/>
			<polygon fill="#FFC107" points="0,30 20,20 20,40 		"/>
		</g>
		<path fill="#000000" d="M55.4,58.7h-4c0.4-0.9,0.8-1.8,1.2-2.6c0.4-0.8,0.8-1.7,1.2-2.5c0.4-0.9,0.8-1.7,1.2-2.7c0.4-0.9,0.9-1.9,1.3-3c-0.7-1.4-1.4-2.9-2.2-4.4c-0.7-1.5-1.5-3.1-2.2-4.6c-0.7-1.6-1.5-3.1-2.2-4.7c-0.7-1.6-1.4-3-2.2-4.4h4.3c1.1,2.2,2,4.1,2.8,5.6c0.7,1.5,1.3,2.8,1.8,3.9c0.5,1.1,0.9,2,1.2,2.8c0.3,0.8,0.6,1.5,0.8,2.1c0.2-0.7,0.5-1.4,0.8-2.1c0.3-0.8,0.7-1.7,1.2-2.8c0.5-1.1,1.1-2.4,1.8-3.9c0.7-1.5,1.7-3.4,2.8-5.6h4.3L55.4,58.7z"/>
		<path fill="#000000" d="M77.4,21.3h4v8.6h5.2v3.5h-5.2v15.9h-4V33.5h-3.5v-3.5h3.5V21.3z"/>
		<path fill="#000000" d="M91.2,39.8c0-1.4,0.3-2.8,0.8-4c0.5-1.3,1.3-2.4,2.2-3.3c0.9-0.9,2-1.7,3.2-2.3c1.2-0.6,2.5-0.8,3.9-0.8c0.9,0,1.8,0.1,2.6,0.3c0.8,0.2,1.4,0.5,2,0.9c0.6,0.3,1,0.7,1.3,1.1c0.3,0.4,0.6,0.7,0.7,1l0.2-2.7h3.8v19.4h-4v-2.5c-0.2,0.2-0.4,0.5-0.7,0.9c-0.3,0.3-0.8,0.7-1.3,1c-0.5,0.3-1.2,0.6-1.9,0.8c-0.7,0.2-1.6,0.3-2.6,0.3c-1.5,0-2.9-0.3-4.1-0.8c-1.3-0.5-2.3-1.3-3.2-2.2c-0.9-0.9-1.6-2-2.1-3.2C91.4,42.4,91.2,41.1,91.2,39.8z M95.2,39.6c0,0.9,0.2,1.7,0.5,2.5c0.3,0.8,0.8,1.4,1.3,2c0.6,0.6,1.2,1,2,1.3c0.8,0.3,1.6,0.5,2.6,0.5c0.9,0,1.8-0.2,2.6-0.5c0.8-0.3,1.5-0.8,2-1.3c0.6-0.6,1-1.2,1.3-2c0.3-0.8,0.5-1.6,0.5-2.5c0-0.9-0.2-1.7-0.5-2.5c-0.3-0.8-0.8-1.4-1.3-2c-0.6-0.6-1.3-1-2-1.3c-0.8-0.3-1.7-0.5-2.6-0.5c-0.9,0-1.8,0.2-2.6,0.5c-0.8,0.3-1.4,0.8-2,1.3c-0.6,0.6-1,1.2-1.3,2C95.3,37.8,95.2,38.7,95.2,39.6z"/>
		<path fill="#000000" d="M130.1,34.5c-0.9,0-1.7,0.1-2.5,0.3c-0.8,0.2-1.5,0.6-2.2,1c-0.6,0.5-1.1,1-1.5,1.7s-0.6,1.5-0.6,2.4v9.3h-4V29.9h3.5c0.1,1,0.1,1.8,0.2,2.6c0,0.8,0.1,1.6,0.2,2.3c0.4-0.8,0.9-1.6,1.6-2.3c0.7-0.7,1.3-1.3,2.1-1.7c0.7-0.5,1.5-0.8,2.2-1.1c0.7-0.3,1.3-0.4,1.9-0.4L130.1,34.5z"/>
	</g>
</svg>