<svg version="1.1" xmlns="http://www.w3.org/2000/svg" xmlns:xlink="http://www.w3.org/1999/xlink" x="0px" y="0px" viewBox="0 0 256 80" enable-background="new 0 0 256 80" xml:space="preserve">
	<g>
		<circle fill="#DC9D94" cx="40" cy="40" r="40"/>
		<g>
			<g>
				<path fill="#FFFFFF" d="M12.9,23.4c-0.7,0.1-1.3,0.5-1.7,1c-0.1,0.1-0.3,0.3-0.4,0.4c-0.1,0.1-0.2,0.3-0.3,0.4c-0.2,0.3-0.4,0.6-0.6,0.9c-0.2,0.3-0.3,0.6-0.3,1l-0.3,1.8c0,0.5,0,0.9,0.1,1.3c0.1,0.4,0.2,0.8,0.3,1.2c-0.2,0.2-0.4,0.2-0.5,0c-0.1-0.1-0.2-0.3-0.3-0.4c-0.1-0.1-0.2-0.3-0.2-0.4c-0.3-0.5-0.4-1.1-0.4-1.6c0-0.5,0-1.1,0-1.7c0.1-1.5,0.6-2.8,1.6-4c0.7-1,1.7-1.5,2.8-1.7c0.2,0,0.4,0,0.6,0c0.2,0,0.4,0.1,0.5,0.1c0.6,0.2,1.1,0.4,1.6,0.7c0.5,0.3,0.9,0.7,1.1,1.3c0.2,0.4,0.4,0.8,0.6,1.1c0.2,0.4,0.3,0.8,0.4,1.2c0.1,0.2,0.1,0.4,0.2,0.6c0.1,0.2,0.1,0.4,0.2,0.6c0.1,0.2,0.1,0.3,0.1,0.5c0,0.2,0.1,0.3,0.1,0.5c0.3,1.7,0.3,3.4,0.2,5.2c-0.2,1.7-0.3,3.5-0.6,5.3c-0.2,1.8-0.4,3.5-0.4,5.2c-0.1,1.7,0.1,3.4,0.6,5.1c0.1,0.5,0.3,1,0.4,1.4c0.1,0.5,0.3,0.9,0.6,1.3c0.1,0.2,0.2,0.4,0.3,0.4c0.1,0,0.2,0,0.4,0c0.5-0.1,0.9-0.3,1.3-0.6c0.4-0.3,0.7-0.6,0.9-1c0.4-0.6,0.7-1.2,1-1.8c0.3-0.6,0.5-1.2,0.7-1.9c0.2-0.5,0.3-1,0.4-1.5c0.1-0.5,0.2-1,0.4-1.5c0.1-0.5,0.3-1.1,0.4-1.6c0.1-0.5,0.3-1.1,0.4-1.6c0.1-0.5,0.2-1,0.3-1.4c0-0.5,0.1-0.9,0.1-1.4c0.1-0.7,0.2-1.3,0.2-2c0.1-0.7,0.1-1.3,0.2-2c0-0.1,0-0.2,0-0.3c0-0.1,0-0.2,0-0.3c0.1-0.3,0.3-0.5,0.6-0.6c0.3-0.1,0.5,0,0.7,0c0.2,0.1,0.4,0.2,0.6,0.5c0.1,0.2,0.2,0.4,0.4,0.5c0.1,0.2,0.3,0.3,0.4,0.5c0.2,0.2,0.3,0.4,0.3,0.6c0,0.3,0,0.6,0.1,0.9c0,0.3,0,0.6,0,0.9c-0.1,1.3-0.1,2.6,0,3.9c0,1.3,0,2.6,0,3.9c0,2.1,0,4.3,0,6.6c0,2.3,0.3,4.5,0.9,6.6c0,0.1,0.1,0.3,0.1,0.4c0.1,0.1,0.1,0.3,0.2,0.4c0.4,0.5,0.8,0.6,1.4,0.3c0.1-0.1,0.3-0.2,0.4-0.3c0.1-0.1,0.2-0.2,0.3-0.4c0.4-0.6,0.7-1.2,1.1-1.8c0.4-0.6,0.7-1.2,1.1-1.8c0.3-0.6,0.6-1.2,0.9-1.8c0.3-0.6,0.6-1.2,0.9-1.8c0.2-0.5,0.4-1,0.6-1.5c0.2-0.5,0.4-1,0.6-1.5c-0.1-0.1-0.1-0.1-0.2-0.2c-0.1-0.1-0.1-0.1-0.2-0.2c-0.6-0.5-1-1.2-1.1-2c-0.1-0.4-0.1-0.9-0.2-1.3c-0.1-0.4-0.1-0.9-0.1-1.3c0-0.4,0-0.7,0-1.1c0.1-0.4,0.1-0.8,0.1-1.1c0.1-0.7,0.2-1.3,0.3-2c0.1-0.7,0.2-1.3,0.2-2c0.1-0.9,0.2-1.7,0.5-2.5c0.3-0.8,0.5-1.6,0.7-2.5c0.2-0.6,0.4-1.1,0.8-1.6c0.4-0.5,0.9-0.8,1.5-1c0.5-0.1,1-0.1,1.5,0.1c0.5,0.2,0.7,0.6,0.8,1.2c0.1,0.6,0.1,1.1,0.1,1.7c0,0.5,0,1.1,0,1.7c0,0.7,0,1.4,0,2.1c0,0.7-0.1,1.4-0.3,2.1c-0.1,0.7-0.3,1.4-0.5,2c-0.2,0.7-0.3,1.4-0.4,2.1c0,0.1-0.1,0.3-0.1,0.4c0,0.1-0.1,0.2-0.1,0.3c-0.1,0.5-0.3,1.1-0.4,1.6c-0.2,0.5-0.4,1-0.5,1.5c-0.1,0.2-0.1,0.4-0.1,0.4c0,0.1,0.2,0.2,0.4,0.3c0.5,0.3,0.9,0.3,1.4,0c0.7-0.5,1.3-1,1.8-1.7c0.3-0.5,0.6-0.9,0.9-1.3c0.3-0.4,0.6-0.9,0.9-1.4c0.1-0.1,0.1-0.2,0.2-0.3c0.1-0.1,0.1-0.2,0.2-0.4c0.2-0.4,0.4-0.8,0.6-1.2c0.2-0.4,0.3-0.8,0.5-1.2c0.1-0.3,0.3-0.5,0.5-0.7c0.2-0.2,0.4-0.2,0.8-0.1c0.1,0,0.1,0,0.2,0c0.1,0,0.1,0,0.2,0c0.1,0,0,0.3-0.2,0.8c-0.2,0.5-0.5,1.1-0.9,1.8c-0.4,0.7-0.7,1.4-1.1,2.1c-0.4,0.7-0.7,1.2-0.9,1.6c-0.4,0.5-0.7,1-1.1,1.5c-0.4,0.5-0.8,0.9-1.3,1.3c-0.5,0.5-1.2,0.9-1.8,1.2c-0.5,0.2-1.1,0.3-1.7,0.1c-0.1,0-0.3-0.1-0.6-0.1c-0.1,0.2-0.2,0.4-0.3,0.7c-0.1,0.2-0.2,0.4-0.3,0.7c-0.1,0.3-0.2,0.7-0.3,1c-0.1,0.4-0.2,0.7-0.3,1c-0.2,0.5-0.4,1.1-0.7,1.6c-0.2,0.5-0.4,1-0.7,1.5c-0.1,0.3-0.3,0.6-0.4,0.9c-0.2,0.4-0.4,0.8-0.6,1.2c-0.2,0.4-0.4,0.8-0.7,1.2c-0.2,0.3-0.4,0.7-0.7,1c-0.2,0.3-0.5,0.6-0.7,0.9c-0.3,0.4-0.7,0.7-1.1,0.9c-0.3,0.2-0.6,0.4-1,0.4c-0.3,0-0.7,0-1,0h-0.7c-0.7,0-1.2-0.1-1.7-0.4c-0.5-0.3-0.9-0.7-1.3-1.3c-0.3-0.5-0.5-1-0.7-1.5c-0.2-0.5-0.3-1.1-0.4-1.6c-0.1-0.8-0.2-1.6-0.3-2.4c-0.1-0.8-0.2-1.6-0.3-2.3c-0.1-0.5-0.1-1-0.1-1.4c0-0.5-0.1-1-0.1-1.5c-0.1,0.1-0.1,0.2-0.1,0.3c0,0.1-0.1,0.1-0.1,0.2c-0.2,0.3-0.4,0.7-0.6,1c-0.2,0.4-0.4,0.7-0.6,1.1c0,0.1-0.1,0.2-0.2,0.3c-0.3,0.3-0.6,0.5-0.9,0.8s-0.5,0.5-0.8,0.8c-0.1,0.1-0.2,0.1-0.2,0.2c-0.1,0.1,0,0.2,0.1,0.3c-0.1,0-0.2,0.1-0.3,0.1c-0.1,0-0.2,0.1-0.3,0.1l-1.5,0.3c-0.7,0.1-1.4,0.1-1.9-0.1c-0.6-0.2-1.1-0.6-1.6-1.2c-0.3-0.4-0.6-0.8-0.8-1.3c-0.2-0.5-0.3-0.9-0.5-1.4c-0.5-2-0.8-4.1-0.7-6.3c0-0.1,0-0.3,0-0.4c0-0.2,0-0.3,0-0.4c0-0.2,0-0.4,0-0.6c0-0.2,0-0.4,0.1-0.5c0.1-0.4,0.2-0.8,0.1-1.2c0-0.4,0-0.9-0.1-1.3c-0.1-0.4-0.1-0.7-0.1-1.1c0-0.4,0-0.7,0.1-1.1c0.1-0.9,0.1-1.7,0.1-2.5c0-0.8,0-1.7,0.1-2.5c0.1-1.4,0.2-2.7,0.1-4.1c-0.1-1.4-0.2-2.7-0.4-4.1c0-0.1-0.1-0.3-0.1-0.4C13.1,23.7,13,23.5,12.9,23.4z M38.8,42.8L38.8,42.8c0.1,0,0.2-0.1,0.2-0.3c0.1-0.2,0.1-0.4,0.2-0.6c0.1-0.2,0.1-0.4,0.2-0.6c0.1-0.5,0.3-1,0.4-1.6c0.1-0.5,0.2-1.1,0.3-1.6c0.1-0.4,0.1-0.8,0.1-1.1c0-0.4,0-0.7,0.1-1.1c0.1-0.7,0.2-1.4,0.1-2c0-0.7-0.1-1.4-0.1-2c0-0.2,0-0.5-0.1-0.7c-0.1-0.2-0.2-0.5-0.3-0.7c-0.1,0.1-0.2,0.3-0.3,0.5c-0.2,0.6-0.3,1.3-0.3,2c0,0.3,0,0.7-0.1,1c0,0.4-0.1,0.7-0.1,1.1c0,0.1,0,0.2,0,0.2c0,0.1,0,0.1,0,0.2c0,0.5,0,0.9,0,1.3c0,0.4-0.1,0.9-0.1,1.3c-0.1,0.5-0.1,0.9-0.1,1.4c0,0.5,0,0.9,0,1.4V42c0,0.1,0,0.3,0.1,0.4C38.7,42.5,38.8,42.6,38.8,42.8z"/>
			</g>
			<g>
				<g>
					<path fill="#FFFFFF" d="M48.1,35.3c-0.2-0.1-0.5-0.2-0.7-0.2c-0.3,0-0.5,0-0.7-0.1c-0.1-0.1-0.3-0.1-0.5-0.1c-0.2,0-0.3,0-0.5-0.1c-0.2,0-0.4-0.1-0.6-0.1c-0.2,0-0.4,0-0.6,0c-0.1,0-0.1,0-0.2,0c-0.1,0-0.1,0-0.2,0c-0.2-0.1-0.3-0.1-0.3-0.3c0-0.2,0.1-0.4,0.2-0.4c0.2-0.1,0.5-0.2,0.7-0.3c0.2-0.1,0.5-0.2,0.7-0.2c0.6-0.1,1.1-0.2,1.7-0.2c0.5,0,1.1,0,1.7,0H49c0.1-0.2,0.2-0.5,0.3-0.7c0.1-0.3,0.2-0.5,0.4-0.7c0.1-0.3,0.3-0.6,0.4-1c0.1-0.3,0.3-0.6,0.4-1c0.1-0.2,0.2-0.3,0.2-0.5c0.1-0.2,0.1-0.3,0.2-0.5c0.2-0.3,0.4-0.7,0.6-1c0.2-0.4,0.4-0.7,0.5-1.1c0.2-0.4,0.3-0.7,0.5-1.1c0.2-0.4,0.3-0.7,0.5-1.1c0.1-0.3,0.3-0.6,0.4-0.9c0.3-0.5,0.5-1,0.8-1.4s0.5-0.9,0.8-1.4c0.2-0.4,0.4-0.7,0.6-1.1c0.2-0.5,0.5-0.9,0.9-1.3c0.4-0.4,0.8-0.8,1.2-1.1c0.1-0.1,0.2-0.2,0.3-0.3c0.2-0.1,0.3-0.2,0.5-0.2c0.3,0,0.5,0,0.8,0c0.3,0,0.5,0,0.7,0c0.1,0,0.3,0,0.4,0c0.1,0,0.2,0,0.3,0c0.1,0,0.3,0,0.4,0.2c0.4,0.8,0.6,1.7,0.6,2.6c-0.1,0.3-0.1,0.7,0,1c0,0.3,0,0.7,0,1v0.7c0,0.1,0,0.1,0,0.1c0,0,0,0.1,0,0.1c0.1,0.3,0.1,0.5,0.1,0.8c0,0.3-0.1,0.5-0.1,0.7c0,0.1,0,0.2,0,0.3c0,0.1-0.1,0.2-0.1,0.3c0,0.2,0,0.4,0,0.6c0,0.2,0,0.4,0,0.6c0.1,0.9,0.1,1.8,0,2.7c-0.1,0.4-0.1,0.7-0.1,1.1c0,0.4,0,0.7,0,1.1c0,0.6-0.1,1.1-0.1,1.7c0,0.5-0.1,1.1-0.1,1.7c0,0.2,0,0.4-0.1,0.6c0,0.2-0.1,0.4-0.1,0.6c0,0.2,0,0.4,0,0.5c0.5,0,0.9-0.1,1.3-0.2c0.4-0.1,0.8-0.2,1.3-0.1c0.1,0.2,0.2,0.4,0.2,0.5c-0.1,0.4-0.4,0.5-0.8,0.5c-0.1,0-0.1,0-0.3,0.1c-0.2,0.1-0.3,0.2-0.5,0.3c-0.2,0.1-0.3,0.2-0.5,0.2c-0.1,0-0.2,0-0.3,0c-0.5-0.1-0.8,0.1-0.9,0.6c-0.2,0.9-0.4,1.7-0.5,2.6c-0.1,0.8-0.3,1.5-0.4,2.3c-0.1,0.8-0.2,1.5-0.3,2.3c-0.1,0.6-0.1,1.1-0.2,1.7c-0.1,0.6-0.2,1.2-0.2,1.7c0,0.1,0,0.3,0,0.5c0,0.2,0,0.3,0,0.5c0,0.5,0.1,1,0.1,1.4c0,0.5,0,0.9,0,1.4c0,0.9,0.4,1.7,1.2,2.3c0.4,0.3,0.8,0.3,1-0.1c0.1-0.1,0.2-0.3,0.3-0.4c0.1-0.1,0.2-0.3,0.3-0.4c0.4-0.6,0.8-1.2,1.2-1.9c0.4-0.6,0.7-1.3,1-1.9c0-0.1,0-0.1,0-0.1c0,0,0-0.1,0-0.1c0.1-0.3,0.2-0.6,0.3-0.9c0.2-0.3,0.3-0.6,0.5-0.9c0.1-0.3,0.3-0.6,0.6-1c0.2-0.4,0.4-0.7,0.6-1c0.1-0.2,0.2-0.3,0.2-0.5c0.1-0.2,0.1-0.3,0.2-0.5c0.1-0.2,0.2-0.5,0.5-1c0.2-0.5,0.5-1,0.8-1.6c0.3-0.6,0.6-1.2,1-1.9c0.3-0.6,0.6-1.2,0.9-1.7c0.3-0.5,0.5-1,0.7-1.3c0.2-0.3,0.3-0.5,0.3-0.5c0.3-0.4,0.6-0.6,0.8-0.5c0.2,0.1,0.3,0.2,0.3,0.4c0,0-0.1,0.2-0.3,0.6c-0.2,0.4-0.4,0.8-0.7,1.4c-0.3,0.5-0.6,1.1-0.9,1.8c-0.3,0.7-0.6,1.3-0.9,1.9c-0.3,0.6-0.6,1.1-0.8,1.6c-0.2,0.5-0.4,0.8-0.4,0.9c-0.1,0.3-0.3,0.6-0.4,0.8c-0.1,0.3-0.2,0.5-0.4,0.8L67,46.6c-0.1,0.2-0.3,0.4-0.4,0.6c-0.1,0.2-0.2,0.4-0.4,0.6c-0.2,0.3-0.4,0.6-0.6,1s-0.4,0.7-0.6,1c-0.1,0.2-0.2,0.4-0.3,0.6c-0.1,0.2-0.2,0.4-0.4,0.6c-0.3,0.4-0.5,0.8-0.7,1.2c-0.2,0.4-0.4,0.8-0.7,1.2c-0.2,0.4-0.4,0.7-0.7,1.1c-0.2,0.4-0.4,0.7-0.7,1c-0.3,0.4-0.8,0.9-1.3,1.3C60.2,57,60,57,59.8,57c-0.2,0-0.4,0-0.6-0.1c-0.9-0.1-1.5-0.5-2-1.1c-0.4-0.5-0.7-1-0.9-1.5c-0.2-0.5-0.4-1.1-0.6-1.6c-0.3-1.1-0.5-2.2-0.6-3.2c-0.1-1.1-0.1-2.2,0-3.2c0.1-0.9,0.1-1.8,0.2-2.7c0.1-0.9,0.2-1.8,0.4-2.7c0.1-0.5,0.1-1.1,0.1-1.6c0-0.5,0.1-1,0.1-1.6v-0.4c-0.6-0.1-1.1-0.3-1.7-0.4c-0.5-0.1-1.1-0.3-1.6-0.4c-0.5-0.2-1.1-0.3-1.6-0.5c-0.5-0.2-1.1-0.3-1.6-0.3c-0.1,0.1-0.2,0.3-0.3,0.4c-0.1,0.1-0.2,0.3-0.2,0.4c-0.1,0.2-0.2,0.5-0.3,0.7c-0.1,0.2-0.2,0.5-0.3,0.7l-0.3,0.4c0,0.1-0.1,0.1-0.1,0.2c-0.1,0.3-0.2,0.6-0.3,0.9c-0.1,0.3-0.2,0.5-0.4,0.8c0,0,0,0.1,0,0.1c0,0,0,0.1,0,0.1c-0.2,0.2-0.4,0.5-0.5,0.8c-0.1,0.3-0.2,0.6-0.4,0.9c0,0,0,0,0,0.1c0,0,0,0,0,0.1c-0.1,0.3-0.3,0.6-0.4,0.9c-0.1,0.3-0.3,0.6-0.4,0.9c-0.2,0.5-0.4,0.9-0.7,1.3c-0.3,0.4-0.6,0.8-0.8,1.2c-0.5,0.7-1,1.3-1.6,1.9c-0.3,0.3-0.6,0.6-1,0.9c-0.5,0.3-1,0.4-1.4,0.1c-0.2-0.1-0.4-0.2-0.6-0.3c-0.2-0.1-0.4-0.1-0.6-0.2c-0.9-0.4-1.5-1.1-1.7-2c-0.1-0.7-0.2-1.3-0.1-2c0-0.7,0.1-1.3,0.3-2c0.1-0.4,0.2-0.8,0.4-1.1c0.2-0.3,0.3-0.7,0.6-1c0.3-0.4,0.5-0.8,0.8-1.2c0.2-0.3,0.5-0.6,0.8-0.7c0.3-0.1,0.5-0.2,0.8-0.2c0.3-0.1,0.5-0.1,0.8,0c0.1,0.2,0.1,0.4,0.1,0.4c0,0.1-0.1,0.2-0.3,0.4l-0.3,0.4c-0.1,0.2-0.3,0.4-0.4,0.6c-0.1,0.2-0.2,0.4-0.3,0.6l-0.3,0.4c-0.1,0.4-0.3,0.8-0.4,1.3c-0.1,0.4-0.3,0.8-0.4,1.2C39,43.8,39,44,39,44.2c0,0.3,0.1,0.6,0.1,0.9c0,0.3,0.1,0.6,0.1,0.9c0.1,0.5,0.3,0.9,0.7,1.2c0.4,0.3,0.8,0.4,1.3,0.4c0.2-0.1,0.4-0.1,0.6-0.3c0.3-0.3,0.6-0.6,0.9-1c0.6-0.8,1.1-1.6,1.5-2.5c0.4-0.9,0.8-1.8,1.2-2.7c0.1-0.2,0.2-0.3,0.3-0.5c0.1-0.2,0.2-0.3,0.2-0.5c0.3-0.6,0.6-1.2,0.8-1.8c0.3-0.6,0.5-1.2,0.8-1.8c0.1-0.2,0.2-0.3,0.2-0.5C47.9,35.7,48,35.5,48.1,35.3z M58.5,18.9c-0.2,0.1-0.4,0.1-0.5,0.2c-0.1,0.1-0.2,0.1-0.2,0.3c-0.1,0.2-0.2,0.4-0.3,0.6c-0.1,0.2-0.2,0.4-0.4,0.6c-0.2,0.3-0.3,0.7-0.5,1c-0.2,0.3-0.4,0.7-0.6,1c-0.2,0.3-0.4,0.7-0.6,1.1c-0.2,0.4-0.3,0.8-0.5,1.2c-0.2,0.4-0.4,0.9-0.6,1.3c-0.2,0.3-0.4,0.6-0.6,0.9c-0.2,0.3-0.4,0.6-0.6,0.9c-0.3,0.5-0.5,1-0.7,1.4c-0.2,0.5-0.5,1-0.7,1.4c-0.2,0.4-0.4,0.7-0.6,1.1c-0.2,0.3-0.4,0.7-0.5,1.1c-0.1,0.1-0.1,0.2-0.1,0.3c0,0.1-0.1,0.2-0.1,0.3c1,0.3,2,0.6,2.9,0.8c1,0.3,1.9,0.5,2.9,0.8c0-0.1,0-0.2,0.1-0.2c0.1-0.4,0.1-0.8,0.1-1.1c0-0.4,0.1-0.7,0.1-1.1c0.1-0.9,0.3-1.9,0.3-2.8c0.1-0.9,0.2-1.9,0.3-2.8c0.1-0.5,0.1-0.9,0.2-1.4c0.1-0.5,0.1-0.9,0.2-1.4c0.1-0.6,0.2-1.2,0.3-1.8c0.1-0.6,0.2-1.2,0.3-1.8c0.1-0.3,0.1-0.6,0.1-0.9C58.4,19.5,58.5,19.2,58.5,18.9z"/>
				</g>
			</g>
		</g>
		<g>
			<path fill="#DC9D94" d="M99,52.5l-3.6-14.7h1.9l1.7,7.5c0.4,1.8,0.8,3.7,1,5.1h0c0.2-1.5,0.7-3.2,1.2-5.1l1.9-7.4h1.9l1.7,7.5c0.4,1.8,0.8,3.5,1,5.1h0c0.3-1.6,0.7-3.3,1.1-5.1l1.9-7.4h1.9l-4,14.7h-1.9l-1.8-7.7c-0.4-1.9-0.7-3.3-0.9-4.8h0c-0.3,1.5-0.6,2.9-1.1,4.8l-2,7.7H99z"/>
			<path fill="#DC9D94" d="M126.2,45.6h-5.5v5.3h6.1v1.6h-8V37.8h7.6v1.6h-5.8V44h5.5V45.6z"/>
			<path fill="#DC9D94" d="M133.6,38c1.1-0.2,2.4-0.3,3.9-0.3c2.6,0,4.5,0.6,5.7,1.8c1.3,1.2,2,2.9,2,5.3c0,2.4-0.7,4.4-2,5.7c-1.3,1.4-3.5,2.1-6.3,2.1c-1.3,0-2.4-0.1-3.3-0.2V38z M135.5,51c0.5,0.1,1.1,0.1,1.8,0.1c3.9,0,6-2.3,6-6.3c0-3.5-1.9-5.7-5.7-5.7c-0.9,0-1.7,0.1-2.1,0.2V51z"/>
			<path fill="#FFFFFF" d="M154.3,47.9l-1.5,4.6H151l4.8-14.7h2.2l4.8,14.7h-2l-1.5-4.6H154.3z M159,46.4l-1.4-4.2c-0.3-1-0.5-1.8-0.7-2.7h0c-0.2,0.9-0.4,1.8-0.7,2.7l-1.4,4.3H159z"/>
			<path fill="#FFFFFF" d="M169.3,38c1.1-0.2,2.4-0.3,3.9-0.3c2.6,0,4.5,0.6,5.7,1.8c1.3,1.2,2,2.9,2,5.3c0,2.4-0.7,4.4-2,5.7c-1.3,1.4-3.5,2.1-6.3,2.1c-1.3,0-2.4-0.1-3.3-0.2V38z M171.2,51c0.5,0.1,1.1,0.1,1.8,0.1c3.9,0,6-2.3,6-6.3c0-3.5-1.9-5.7-5.7-5.7c-0.9,0-1.7,0.1-2.1,0.2V51z"/>
			<path fill="#FFFFFF" d="M190.1,52.5l-4.6-14.7h2l2.2,7.3c0.6,2,1.1,3.8,1.5,5.5h0c0.4-1.7,1-3.6,1.6-5.5l2.4-7.3h2l-5.1,14.7H190.1z"/>
			<path fill="#FFFFFF" d="M205,37.8v14.7h-1.8V37.8H205z"/>
			<path fill="#FFFFFF" d="M212.3,50.2c0.8,0.5,2,1,3.3,1c1.9,0,3-1,3-2.5c0-1.4-0.8-2.2-2.7-2.9c-2.3-0.9-3.7-2.1-3.7-4.2c0-2.3,1.8-4,4.6-4c1.4,0,2.5,0.4,3.1,0.7l-0.5,1.6c-0.5-0.3-1.4-0.7-2.7-0.7c-1.9,0-2.7,1.2-2.7,2.2c0,1.4,0.9,2.1,2.8,2.8c2.4,1,3.6,2.2,3.6,4.3c0,2.3-1.6,4.2-5,4.2c-1.4,0-2.9-0.4-3.6-0.9L212.3,50.2z"/>
			<path fill="#FFFFFF" d="M239.5,45c0,5.1-3,7.8-6.6,7.8c-3.7,0-6.4-3-6.4-7.5c0-4.7,2.8-7.7,6.6-7.7C237,37.5,239.5,40.6,239.5,45z M228.5,45.2c0,3.1,1.6,6,4.5,6c2.9,0,4.5-2.8,4.5-6.1c0-2.9-1.5-6-4.5-6C230,39.1,228.5,42,228.5,45.2z"/>
			<path fill="#FFFFFF" d="M246.3,38c0.9-0.2,2.2-0.3,3.5-0.3c2,0,3.2,0.4,4.1,1.2c0.7,0.7,1.1,1.7,1.1,2.8c0,1.9-1.2,3.2-2.7,3.8v0.1c1.1,0.4,1.7,1.4,2.1,3c0.5,2.1,0.8,3.5,1.1,4h-1.9c-0.2-0.4-0.5-1.7-0.9-3.5c-0.4-2-1.2-2.8-2.8-2.9h-1.7v6.4h-1.8V38z M248.1,44.7h1.9c2,0,3.2-1.1,3.2-2.8c0-1.9-1.3-2.7-3.3-2.8c-0.9,0-1.5,0.1-1.8,0.2V44.7z"/>
		</g>
	</g>
</svg>
