<svg version="1.1" xmlns="http://www.w3.org/2000/svg" xmlns:xlink="http://www.w3.org/1999/xlink" x="0px" y="0px" viewBox="0 0 295.5 54" enable-background="new 0 0 295.5 54" xml:space="preserve">
	<g>
		<g>
			<g>
				<g>
					<path fill="#FFFFFF" d="M110.5,50c-0.7,0-1.5-0.2-1.9-0.8c-0.3-0.5-0.4-1.2-0.4-2.5v-3.9h-1.5v-0.8h1.5v-2.7l1.1-0.5v3.2h2.2v0.8h-2.2v3.8c0,1.2,0,1.8,0.5,2.3c0.2,0.2,0.5,0.3,1.1,0.3c0.2,0,0.5,0,0.7,0v0.9C111.1,50,110.9,50,110.5,50z"/>
					<path fill="#FFFFFF" d="M120.7,49.8v-4.2c0-0.3,0-0.6-0.1-0.8c-0.1-0.8-0.4-1.2-0.7-1.4c-0.5-0.4-1.2-0.7-2.6-0.7c-0.4,0-1.7,0-2.7,0.9c-0.4,0.3-0.6,0.7-0.6,0.8c-0.1,0.3-0.2,0.7-0.2,1.1v4.4h-1.1V38.6h1.1v4.7c0.1-0.2,0.2-0.3,0.3-0.4c0.5-0.5,1.7-1.1,3.5-1.1c0.3,0,2.1,0,3.2,0.9c0.2,0.1,0.5,0.4,0.7,0.9c0.3,0.7,0.4,1.3,0.4,2v4.3H120.7z"/>
					<path fill="#FFFFFF" d="M131.3,49.2c-0.5,0.3-1.5,0.8-2.9,0.8c-0.5,0-1.7-0.1-2.9-0.8c-1.2-0.8-1.9-2.1-1.9-3.5c0-1.1,0.4-2.2,1.3-2.9c0.5-0.4,1.6-1.1,3.2-1.1c0.6,0,2.3,0.1,3.5,1.4c0.2,0.2,0.6,0.6,0.8,1.2c0.2,0.4,0.3,0.8,0.4,1.7h-8.2c0.1,2,1.8,3.1,3.8,3.1c0.7,0,2.2-0.1,3.3-1.6c0.1-0.1,0.2-0.2,0.3-0.5l0.8,0.6C132.7,48,132.2,48.7,131.3,49.2z M130.3,43.2c-0.4-0.3-1.1-0.6-2.2-0.6c-0.9,0-1.7,0.2-2.3,0.8c-0.4,0.4-0.6,0.7-0.7,0.9c-0.1,0.2-0.2,0.4-0.3,0.8h6.9C131.5,44.3,131,43.6,130.3,43.2z"/>
					<path fill="#FFFFFF" d="M139.7,40.5V39h1.1v1.5H139.7z M139.7,49.8v-7.9h1.1v7.9H139.7z"/>
					<path fill="#FFFFFF" d="M151,49.8v-4.6c0-0.7-0.1-1.2-0.6-1.7c-0.5-0.4-1.3-0.8-2.7-0.8c-1.2,0-2,0.3-2.4,0.6c-0.3,0.2-0.6,0.5-0.8,0.8c-0.3,0.5-0.3,1-0.3,1.2v4.6H143v-7.9h1.1l0,1.1c0.1-0.1,0.4-0.4,0.7-0.6c0.5-0.3,1.5-0.8,3-0.8c0.3,0,0.9,0,1.6,0.2c0.4,0.1,1.8,0.4,2.4,1.7c0.3,0.6,0.3,1.2,0.3,1.9v4.4H151z"/>
					<path fill="#FFFFFF" d="M157.1,50c-0.7,0-1.5-0.2-1.9-0.8c-0.3-0.5-0.4-1.2-0.4-2.5v-3.9h-1.5v-0.8h1.5v-2.7l1.1-0.5v3.2h2.2v0.8h-2.2v3.8c0,1.2,0,1.8,0.5,2.3c0.2,0.2,0.5,0.3,1.1,0.3c0.2,0,0.5,0,0.7,0v0.9C157.7,50,157.5,50,157.1,50z"/>
					<path fill="#FFFFFF" d="M166.6,49.2c-0.5,0.3-1.5,0.8-2.9,0.8c-0.5,0-1.7-0.1-2.9-0.8c-1.2-0.8-1.9-2.1-1.9-3.5c0-1.1,0.4-2.2,1.3-2.9c0.5-0.4,1.6-1.1,3.2-1.1c0.6,0,2.3,0.1,3.5,1.4c0.2,0.2,0.6,0.6,0.8,1.2c0.2,0.4,0.3,0.8,0.4,1.7h-8.2c0.1,2,1.8,3.1,3.8,3.1c0.7,0,2.2-0.1,3.3-1.6c0.1-0.1,0.2-0.2,0.3-0.5l0.8,0.6C168,48,167.5,48.7,166.6,49.2z M165.6,43.2c-0.4-0.3-1.1-0.6-2.2-0.6c-0.9,0-1.7,0.2-2.3,0.8c-0.4,0.4-0.6,0.7-0.7,0.9c-0.1,0.2-0.2,0.4-0.3,0.8h6.9C166.8,44.3,166.3,43.6,165.6,43.2z"/>
					<path fill="#FFFFFF" d="M170,49.8V38.6h1.1v11.3H170z"/>
					<path fill="#FFFFFF" d="M173.3,49.8V38.6h1.1v11.3H173.3z"/>
					<path fill="#FFFFFF" d="M176.6,40.5V39h1.1v1.5H176.6z M176.6,49.8v-7.9h1.1v7.9H176.6z"/>
					<path fill="#FFFFFF" d="M188.5,50.9c-0.5,1.7-2.3,2-2.7,2c-0.3,0-0.8,0.1-1.5,0.1c-0.2,0-2,0-3-0.6c-0.6-0.4-0.9-0.9-1.1-1.5c0-0.1,0-0.3-0.1-0.4h1.1c0,0.4,0.1,0.9,0.9,1.3c0.3,0.1,1.1,0.4,2.1,0.4c0.3,0,1,0,1.8-0.2c0.6-0.1,1.1-0.4,1.4-0.8c0.4-0.5,0.4-1.2,0.4-2.5c-0.1,0.1-0.3,0.4-0.5,0.6c-0.5,0.4-1.5,0.9-3.1,0.9c-0.7,0-1.4-0.1-2-0.4c-0.9-0.4-2.5-1.4-2.5-3.8c0-0.5,0-1.6,0.9-2.6c1-1.1,2.2-1.4,2.7-1.5c0.2,0,0.6-0.1,1.1-0.1c0.4,0,1.9,0.1,3,0.9c0.2,0.2,0.4,0.4,0.5,0.4l0-1.2h1V49C188.7,49.2,188.7,50.1,188.5,50.9z M186.7,43.4c-0.4-0.3-1.3-0.8-2.6-0.8c-1.9,0.1-3.5,1.2-3.5,3.3c0,0.7,0.2,1.2,0.3,1.4c0.8,1.8,2.7,1.8,3.3,1.8c0.9,0,2.1-0.3,2.7-1c0.4-0.4,0.8-1.1,0.8-2.3C187.7,44.4,187.3,43.8,186.7,43.4z"/>
					<path fill="#FFFFFF" d="M198.3,49.2c-0.5,0.3-1.5,0.8-2.9,0.8c-0.5,0-1.7-0.1-2.9-0.8c-1.2-0.8-1.9-2.1-1.9-3.5c0-1.1,0.4-2.2,1.3-2.9c0.5-0.4,1.6-1.1,3.2-1.1c0.6,0,2.3,0.1,3.5,1.4c0.2,0.2,0.6,0.6,0.8,1.2c0.2,0.4,0.3,0.8,0.4,1.7h-8.2c0.1,2,1.8,3.1,3.8,3.1c0.7,0,2.2-0.1,3.3-1.6c0.1-0.1,0.2-0.2,0.3-0.5l0.8,0.6C199.6,48,199.1,48.7,198.3,49.2z M197.2,43.2c-0.4-0.3-1.1-0.6-2.2-0.6c-0.9,0-1.7,0.2-2.3,0.8c-0.4,0.4-0.6,0.7-0.7,0.9c-0.1,0.2-0.2,0.4-0.3,0.8h6.9C198.4,44.3,197.9,43.6,197.2,43.2z"/>
					<path fill="#FFFFFF" d="M209.6,49.8v-4.6c0-0.7-0.1-1.2-0.6-1.7c-0.5-0.4-1.3-0.8-2.7-0.8c-1.2,0-2,0.3-2.4,0.6c-0.3,0.2-0.6,0.5-0.8,0.8c-0.3,0.5-0.3,1-0.3,1.2v4.6h-1.1v-7.9h1.1l0,1.1c0.1-0.1,0.4-0.4,0.7-0.6c0.5-0.3,1.5-0.8,3-0.8c0.3,0,0.9,0,1.6,0.2c0.4,0.1,1.8,0.4,2.4,1.7c0.3,0.6,0.3,1.2,0.3,1.9v4.4H209.6z"/>
					<path fill="#FFFFFF" d="M215.7,50c-0.7,0-1.5-0.2-1.9-0.8c-0.3-0.5-0.4-1.2-0.4-2.5v-3.9h-1.5v-0.8h1.5v-2.7l1.1-0.5v3.2h2.2v0.8h-2.2v3.8c0,1.2,0,1.8,0.5,2.3c0.2,0.2,0.5,0.3,1.1,0.3c0.2,0,0.5,0,0.7,0v0.9C216.3,50,216.1,50,215.7,50z"/>
					<path fill="#FFFFFF" d="M231.2,48.7c-0.5,0.5-1.7,1.4-3.6,1.4c-0.9,0-1.7-0.2-2-0.3c-0.2-0.1-0.4-0.2-0.8-0.4c-0.4-0.3-0.6-0.5-0.8-0.7v4.2h-1V41.9h1v1.2c0.2-0.2,0.2-0.2,0.3-0.4c1.2-1.1,3.1-1.1,3.5-1.1c1.6,0,3.2,0.6,4,2.1c0.2,0.3,0.5,1,0.5,2C232.3,46.4,232.3,47.6,231.2,48.7z M230.8,44.4c-0.8-1.7-2.8-1.8-3.3-1.8c-1.4,0-2.8,0.5-3.3,1.9c-0.2,0.4-0.2,0.9-0.2,1.3c0,0.3,0,1.4,0.8,2.2c0.4,0.4,1.3,0.9,2.7,0.9c1.7,0,2.6-0.8,3.1-1.3c0.5-0.7,0.6-1.6,0.6-1.9C231.2,45.6,231.1,45.1,230.8,44.4z"/>
					<path fill="#FFFFFF" d="M234.3,49.8V38.6h1.1v11.3H234.3z"/>
					<path fill="#FFFFFF" d="M246.1,49.9c-0.3,0-0.5-0.1-0.7-0.1c-0.6-0.3-0.6-1-0.6-1.1c-0.3,0.2-0.6,0.4-0.9,0.6c-0.6,0.3-1.7,0.8-3.3,0.8c-1.1,0-2.3-0.1-3-1c-0.5-0.6-0.5-1.3-0.5-1.5c0-0.8,0.4-1.5,1-1.9c1.1-0.8,3.5-0.8,6.7-0.9c0-0.4,0-0.8-0.3-1.2c-0.4-0.5-1.5-0.8-3-0.8c-1.2,0-1.9,0.1-2.3,0.4c-0.2,0.1-0.3,0.2-0.5,0.4c-0.2,0.3-0.3,0.5-0.4,0.9l-1.1-0.1c0.1-0.4,0.4-1.4,1.4-2c1.1-0.6,2.6-0.6,2.9-0.6c1.9,0,3.2,0.4,3.8,1c0.5,0.5,0.5,1.1,0.5,1.7v3.4c0,0.2,0,0.5,0.1,0.8c0.2,0.4,0.8,0.4,1.2,0.4v0.8C246.8,49.9,246.5,49.9,246.1,49.9z M240.5,45.8c-1.2,0.2-1.7,0.4-2.1,0.9c-0.1,0.1-0.2,0.4-0.2,0.8c0,0.2,0,0.6,0.4,1c0.7,0.6,2,0.6,2.1,0.6c0.4,0,1.7-0.1,2.9-0.7c0.2-0.1,0.6-0.4,0.9-0.8c0.3-0.6,0.3-1.4,0.3-2C242.7,45.6,241.5,45.6,240.5,45.8z"/>
					<path fill="#FFFFFF" d="M251,50c-0.7,0-1.5-0.2-1.9-0.8c-0.3-0.5-0.4-1.2-0.4-2.5v-3.9h-1.5v-0.8h1.5v-2.7l1.1-0.5v3.2h2.2v0.8h-2.2v3.8c0,1.2,0,1.8,0.5,2.3c0.2,0.2,0.5,0.3,1.1,0.3c0.2,0,0.5,0,0.7,0v0.9C251.6,50,251.4,50,251,50z"/>
					<path fill="#FFFFFF" d="M254.9,42.8v7.1h-1.1v-7.1h-1.6v-0.8h1.6v-1.6c0-0.6,0-1,0.4-1.5c0.5-0.5,1.1-0.6,1.8-0.6c0.3,0,0.8,0,1.5,0.2l0,0.9c-0.5-0.1-0.8-0.2-1.4-0.2c-0.1,0-0.5,0-0.8,0.2c-0.3,0.2-0.5,0.5-0.5,1.3v1.3h2.7v0.8H254.9z"/>
					<path fill="#FFFFFF" d="M267,48.1c-0.6,0.8-1.9,2-4.3,2c-0.2,0-0.7,0-1.2-0.1c-0.5-0.1-2-0.4-3-1.8c-0.6-0.9-0.7-1.8-0.7-2.3c0-0.2,0-0.8,0.3-1.4c0.5-1.3,1.6-2,2.1-2.2c0.4-0.2,1.5-0.6,2.8-0.6c0.5,0,2.1,0.1,3.3,1.1c1.3,1.1,1.5,2.6,1.5,3.2C267.6,46.4,267.6,47.2,267,48.1z M266.2,44.5c-0.9-1.9-3-1.9-3.5-1.9c-0.3,0-1.4,0.1-2.3,0.7c-0.5,0.3-1.4,1.1-1.4,2.7c0,0.3,0,1.2,0.6,2c0.7,0.9,2,1.3,3.1,1.3c0.5,0,2,0,3.1-1.2c0.7-0.8,0.7-1.7,0.7-2.1C266.5,45.4,266.4,44.9,266.2,44.5z"/>
					<path fill="#FFFFFF" d="M274.5,42.8c-0.3,0-0.5-0.1-0.8-0.1c-1.3,0-2.1,0.5-2.5,0.9c-0.3,0.4-0.5,0.9-0.5,1c-0.1,0.3-0.1,0.7-0.1,0.8v4.4h-1.1v-7.9h1.1v1.3c0.1-0.1,0.3-0.4,0.6-0.7c1.3-1,2.9-0.9,3.3-0.9L274.5,42.8z"/>
					<path fill="#FFFFFF" d="M291.1,49.8v-4.4c0-0.2,0-0.7-0.2-1.2c-0.7-1.5-2.8-1.5-3.1-1.5c-0.2,0-2.3,0-3,1.3c-0.2,0.4-0.3,0.7-0.3,1.1v4.7h-1.1v-4.4c0-0.7-0.1-0.9-0.2-1.3c-0.5-1.2-1.9-1.5-3-1.5c-1.1,0-2.5,0.3-3.1,1.3c-0.2,0.3-0.2,0.5-0.2,1.1v4.6h-1.1v-7.9h1.1v1c0.2-0.1,0.4-0.3,0.5-0.4c1.1-0.8,2.6-0.8,2.9-0.8s1.9,0,3.1,0.9c0.3,0.3,0.5,0.6,0.6,0.7c0.2-0.2,0.3-0.4,0.7-0.7c0.6-0.4,1.5-0.9,3.2-0.9c0.3,0,1.7,0,2.8,0.7c0.3,0.2,0.9,0.6,1.2,1.5c0.2,0.4,0.2,0.8,0.2,1.2v4.7H291.1z"/>
				</g>
			</g>
			<g>
				<path fill="#FFFFFF" d="M125,29c-1.2,0.8-4,2.1-7.8,2.1c-1.3,0-4.6-0.2-7.7-2.2c-3.1-2-5-5.5-5-9.3c0-2.9,1.2-5.8,3.4-7.8c1.2-1.1,4.2-3,8.7-3c1.6,0,6.1,0.3,9.5,3.7c0.5,0.5,1.5,1.6,2.3,3.3c0.5,1.2,0.8,2.2,1,4.5h-21.8c0.4,5.5,4.9,8.3,10,8.3c1.7,0,5.8-0.3,8.7-4.1c0.3-0.3,0.4-0.6,0.9-1.3l2.2,1.6C128.6,25.6,127.3,27.5,125,29z M122.2,12.8c-1.1-0.7-2.9-1.6-5.9-1.6c-2.4,0-4.4,0.6-6.2,2.2c-1.1,1-1.6,2-1.9,2.4c-0.3,0.6-0.5,1-0.7,2.1h18.3C125.3,15.7,124.2,14,122.2,12.8z"/>
				<path fill="#FFFFFF" d="M144.3,30.6h-2.6L131,9.5h3.2l8.8,17.9l8.7-17.9h3.2L144.3,30.6z"/>
				<path fill="#FFFFFF" d="M177.4,29c-1.2,0.8-4,2.1-7.8,2.1c-1.3,0-4.6-0.2-7.7-2.2c-3.1-2-5-5.5-5-9.3c0-2.9,1.2-5.8,3.4-7.8c1.2-1.1,4.2-3,8.7-3c1.6,0,6.1,0.3,9.5,3.7c0.5,0.5,1.5,1.6,2.3,3.3c0.5,1.2,0.8,2.2,1,4.5h-21.8c0.4,5.5,4.9,8.3,10,8.3c1.7,0,5.8-0.3,8.7-4.1c0.3-0.3,0.4-0.6,0.9-1.3l2.2,1.6C181,25.6,179.7,27.5,177.4,29z M174.6,12.8c-1.1-0.7-2.9-1.6-5.9-1.6c-2.4,0-4.4,0.6-6.2,2.2c-1.1,1-1.6,2-1.9,2.4c-0.3,0.6-0.5,1-0.7,2.1h18.3C177.7,15.7,176.5,14,174.6,12.8z"/>
				<path fill="#FFFFFF" d="M207.7,30.6V18.3c0-1.8-0.3-3.3-1.7-4.6c-1.2-1.2-3.5-2.1-7.3-2.1c-3.3,0-5.2,0.8-6.5,1.5c-0.9,0.6-1.7,1.2-2.3,2.1c-0.8,1.2-0.8,2.6-0.8,3.1v12.2h-2.8V9.5h2.8l0,2.9c0.2-0.2,0.9-1,1.7-1.5c1.4-0.9,4.1-2,8.1-2c0.7,0,2.4,0,4.3,0.5c1.1,0.3,4.8,1.1,6.4,4.5c0.8,1.7,0.9,3.3,0.9,5v11.6H207.7z"/>
				<path fill="#FFFFFF" d="M223.9,31c-2,0-3.9-0.5-5-2.3c-0.9-1.4-1-3.2-1-6.6V11.7h-4V9.5h4V2.3l2.8-1.3v8.5h6v2.2h-6v10c0,3.2,0.1,4.9,1.2,6c0.5,0.4,1.4,0.9,2.9,0.9c0.6,0,1.3-0.1,1.9-0.1v2.3C225.6,30.9,225,31,223.9,31z"/>
				<path fill="#FFFFFF" d="M249.1,29.1c-1.5,1-4.1,1.9-8.3,1.9c-6.2,0-9.8-1.4-11.6-3.7c-0.3-0.3-0.6-0.8-0.8-1.2c-0.1-0.1-0.3-0.7-0.3-0.9l3.1-0.7c0.1,0.3,0.3,0.6,0.5,0.9c0.6,0.9,1.6,1.5,2.6,2c1.1,0.4,3.4,1,6.4,1c0.3,0,4.5,0,6.8-1.5c0.3-0.3,1.6-1.2,1.6-2.7c0-0.3-0.1-0.9-0.6-1.5c-0.9-1.1-2.5-1.3-5.2-1.4c-5.2-0.4-8.6-0.2-10.8-1c-0.9-0.3-3.4-1.6-3.4-4.8c0-1.2,0.3-3.7,3.2-5.2c1.4-0.8,3.8-1.4,7.5-1.4c2.3,0,5.2,0.3,7.4,1.1c0.9,0.3,1.5,0.7,2.3,1.3c0.9,0.8,1.5,1.5,2,2.6l-3.1,0.6c-0.1-0.2-0.4-0.8-0.9-1.2c-1.7-1.5-5.6-1.9-7.8-1.9c-2,0-5.3,0.3-6.8,1.8c-0.8,0.8-0.9,1.7-0.9,2c0,0.7,0.3,1.9,2,2.4c0.8,0.2,2.2,0.3,4.1,0.4c5.3,0.3,8.7,0.3,10.9,1.4c0.9,0.4,3,1.8,3,4.7C251.9,25.5,251.5,27.5,249.1,29.1z"/>
			</g>
			<g>
				<path fill="#FFFFFF" d="M261.4,5.8V1.7h2.8v4.1H261.4z M261.4,30.6V9.5h2.8v21.1H261.4z"/>
				<path fill="#FFFFFF" d="M292.3,27.4c-1.4,1.4-4.6,3.6-9.6,3.6c-2.5,0-4.5-0.6-5.4-0.9c-0.4-0.2-1.2-0.5-2.2-1.1c-1.1-0.8-1.6-1.3-2-1.7v11.2h-2.7v-29h2.7v3.3c0.5-0.6,0.5-0.6,0.9-0.9c3.3-2.9,8.2-2.9,9.3-2.9c4.3,0,8.6,1.7,10.7,5.7c0.5,0.9,1.4,2.7,1.4,5.4C295.4,21.4,295.1,24.7,292.3,27.4z M291.4,16.1c-2.2-4.6-7.4-4.7-8.7-4.7c-3.7,0-7.5,1.4-8.9,5.2c-0.4,1.1-0.6,2.3-0.6,3.5c0,0.9,0,3.8,2,5.8c1.1,1,3.5,2.5,7.3,2.5c4.5,0,7-2,8.1-3.5c1.4-1.9,1.6-4.2,1.6-5C292.2,19.2,292.1,17.8,291.4,16.1z"/>
			</g>
		</g>
		<g>
			<g>
				<path fill="#4B847C" d="M39.1,8.6v8.7c0,1.5,0.7,2.3,1.7,1.7c0,0,1.5-1,2.2-1c1.4,0,2.6,1.8,2.6,4c0,2.2-1.2,4-2.6,4c-0.7,0-2.2-1-2.2-1c-0.9-0.6-1.7,0.1-1.7,1.7v7.9"/>
				<path fill="#4B847C" d="M79.7,34.5l-12.4,0l-0.2,0c-1.1,0.2-1.5,0.8-1,1.6c0,0,1,1.5,1,2.2c0,1.4-1.8,2.6-3.9,2.6c-2.2,0-3.9-1.2-3.9-2.6c0-0.8,1-2.2,1-2.2c0.5-0.8,0.1-1.4-1-1.6l-1.2-0.1l-18.8,0l-0.1-9l0-3.4l-0.1-2.9l0.1-10.7c0,0-13.9-1.7-21.1,11.5c0,0-20.3-0.8-17.8,20.4c0.8,6.6,12.4,18,25.2,9.9c0,0,12.9,9.3,26.8-1.5c0,0,11,11.1,24.3-2.4C78.7,44.2,80.1,39.3,79.7,34.5z"/>
			</g>
			<g>
				<path fill="#639E90" d="M80.9,15.7c0,0-5.8-5-14.3-1.9c0,0-5-12.7-18.5-13.8l0.1,9.2c0.2,1,0.8,1.4,1.5,0.9c0,0,1.5-1,2.2-1c1.4,0,2.6,1.9,2.6,4.2c0,2.3-1.2,4.2-2.6,4.2c-0.7,0-2.2-1-2.2-1c-0.9-0.6-1.6,0.1-1.6,1.7v2.7v6.3l17,0l4.7,0l4.8,0l13.8,0C88.4,27.1,87.7,20.7,80.9,15.7z"/>
				<path fill="#639E90" d="M86.1,26.1H77c-1.6,0-2.4,0.7-1.7,1.7c0,0,1.1,1.5,1.1,2.2c0,1.4-1.9,2.6-4.2,2.6c-2.3,0-4.2-1.2-4.2-2.6c0-0.8,1.1-2.2,1.1-2.2c0.6-0.9-0.1-1.7-1.7-1.7H59"/>
			</g>
		</g>
	</g>
</svg>
