<svg version="1.1" xmlns="http://www.w3.org/2000/svg" xmlns:xlink="http://www.w3.org/1999/xlink" x="0px" y="0px" viewBox="0 0 294 54" enable-background="new 0 0 294 54" xml:space="preserve">
	<g>
		<g>
			<g>
				<path fill="#882144" d="M37.8,21.4H6.6v16.8H0.1V15.6c0-6.3,1.3-10.6,4-12.7C6.4,1,10.9,0,17.4,0H27c6.4,0,10.8,1,13.2,2.9c2.7,2.2,4.1,6.4,4.1,12.6v22.7h-6.5V21.4z M6.6,15.6h31.2c0-4.3-0.9-7.1-2.7-8.3c-1.4-1-4.4-1.5-9.1-1.5h-7.8c-4.6,0-7.6,0.5-8.9,1.5C7.6,8.6,6.7,11.4,6.6,15.6z"/>
				<path fill="#882144" d="M94.6,38.2h-6.4v-7c0-2.7-0.6-4.7-1.7-5.9c-1.1-1.2-3-1.8-5.8-1.8l-22.3,0.1v14.6h-6.3V0h28c4.6,0,7.9,0.9,10,2.7c2.1,1.9,3.2,5.2,3.2,9.7c0,4.1-1.2,6.8-3.5,7.9c3.1,0.8,4.7,3.6,4.7,8.4V38.2z M80.8,6.6H58.5v10.5h22.3c4.2,0,6.3-1.8,6.3-5.5C87.1,8.2,85,6.6,80.8,6.6z"/>
			</g>
			<g>
				<path fill="#919295" d="M130.7,24.3h-18.8v14h-6.4V0h25.8c5.1,0,8.5,0.9,10.4,2.8c1.9,1.9,2.8,5.3,2.8,10.3c0,4.5-1.3,7.6-3.8,9.2C138.8,23.6,135.4,24.3,130.7,24.3z M131.3,6.3h-19.4v11.6h19.5c2.2,0,3.9-0.3,4.9-1c1.2-0.8,1.9-2.3,1.9-4.5c0-2.5-0.5-4.1-1.5-4.9C135.6,6.7,133.8,6.3,131.3,6.3z"/>
				<path fill="#919295" d="M157.6,38.2h-6.5V0h6.5V38.2z"/>
				<path fill="#919295" d="M196.5,38.2h-32.4V0h6.5v32.4h25.9V38.2z"/>
				<path fill="#919295" d="M237.1,21.4h-31.2v16.8h-6.5V15.6c0-6.3,1.3-10.6,4-12.7C205.7,1,210.1,0,216.6,0h9.7c6.4,0,10.8,1,13.2,2.9c2.7,2.2,4.1,6.4,4.1,12.6v22.7h-6.5V21.4z M205.9,15.6H237c0-4.3-0.9-7.1-2.7-8.3c-1.4-1-4.4-1.5-9.1-1.5h-7.8c-4.6,0-7.6,0.5-9,1.5C206.8,8.6,205.9,11.4,205.9,15.6z"/>
				<path fill="#919295" d="M293.9,38.2h-6.4v-7c0-2.7-0.6-4.7-1.7-5.9c-1.1-1.2-3-1.8-5.8-1.8l-22.3,0.1v14.6h-6.3V0h28c4.6,0,7.9,0.9,10,2.7c2.1,1.9,3.2,5.2,3.2,9.7c0,4.1-1.2,6.8-3.5,7.9c3.1,0.8,4.7,3.6,4.7,8.4V38.2z M280.1,6.6h-22.3v10.5h22.3c4.2,0,6.3-1.8,6.3-5.5C286.3,8.2,284.2,6.6,280.1,6.6z"/>
			</g>
		</g>
		<g>
			<path fill="#919295" d="M0.1,53.9v-7.3h5.2V47H0.7v2.9h4.2v0.5H0.7v2.9h4.7v0.5H0.1z"/>
			<path fill="#919295" d="M15.6,53.9v-7.3h0.5v6.8h4.3v0.5H15.6z"/>
			<path fill="#919295" d="M48.1,53.9l-0.9-2.1h-4.3l-0.9,2.1h-0.6l3.4-7.4h0.5l3.4,7.4H48.1z M45,47.1l-1.9,4.2H47L45,47.1z"/>
			<path fill="#919295" d="M64,53.9l-2.3-3h-2.4v3h-0.5v-7.3h3.1c1.6,0,2.6,0.9,2.6,2.1v0c0,1.2-0.9,1.9-2.2,2.1l2.4,3.1H64z M63.9,48.6c0-1-0.8-1.6-2.1-1.6h-2.5v3.3h2.5C62.9,50.3,63.9,49.7,63.9,48.6L63.9,48.6z"/>
			<path fill="#919295" d="M77.2,47v6.8h-0.5V47H74v-0.5h5.7V47H77.2z"/>
			<path fill="#919295" d="M89.8,53.9v-7.3H95V47h-4.7v2.9h4.2v0.5h-4.2v2.9H95v0.5H89.8z"/>
			<path fill="#919295" d="M119.2,53.9h-2.4v-7.3h2.4c2.3,0,3.9,1.6,3.9,3.7v0C123.1,52.3,121.5,53.9,119.2,53.9z M122.5,50.2c0-1.7-1.3-3.2-3.3-3.2h-1.9v6.3h1.9C121.2,53.4,122.5,52,122.5,50.2L122.5,50.2z"/>
			<path fill="#919295" d="M133.4,53.9v-7.3h5.2V47h-4.7v2.9h4.2v0.5h-4.2v2.9h4.7v0.5H133.4z"/>
			<path fill="#919295" d="M163.7,54c-2.2,0-3.7-1.8-3.7-3.8v0c0-2,1.5-3.8,3.7-3.8c2.2,0,3.7,1.8,3.7,3.8c0,0,0,0,0,0C167.4,52.2,165.9,54,163.7,54z M166.8,50.2c0-1.8-1.3-3.3-3.1-3.3c-1.8,0-3.1,1.5-3.1,3.3v0c0,1.8,1.3,3.3,3.1,3.3C165.5,53.5,166.8,52,166.8,50.2L166.8,50.2z"/>
			<path fill="#919295" d="M182.9,53.9l-2.3-3h-2.4v3h-0.5v-7.3h3.1c1.6,0,2.6,0.9,2.6,2.1v0c0,1.2-0.9,1.9-2.2,2.1l2.4,3.1H182.9z M182.8,48.6c0-1-0.8-1.6-2.1-1.6h-2.5v3.3h2.5C181.9,50.3,182.8,49.7,182.8,48.6L182.8,48.6z"/>
			<path fill="#919295" d="M197,54c-2.3,0-3.7-1.7-3.7-3.8v0c0-2,1.4-3.8,3.6-3.8c1.2,0,2,0.4,2.7,1l-0.4,0.4c-0.6-0.5-1.2-0.9-2.4-0.9c-1.8,0-3,1.5-3,3.3v0c0,1.9,1.2,3.3,3.1,3.3c0.9,0,1.8-0.4,2.3-0.8v-2.1h-2.5v-0.5h3v2.8C199.2,53.5,198.2,54,197,54z"/>
			<path fill="#919295" d="M216.4,53.9l-0.9-2.1h-4.3l-0.9,2.1h-0.6l3.4-7.4h0.5l3.4,7.4H216.4z M213.3,47.1l-1.9,4.2h3.9L213.3,47.1z"/>
			<path fill="#919295" d="M232.6,53.9l-5.2-6.5v6.5h-0.5v-7.3h0.5l5.1,6.4v-6.4h0.5v7.3H232.6z"/>
			<path fill="#919295" d="M243.7,53.9v-7.3h0.5v7.3H243.7z"/>
			<path fill="#919295" d="M254.5,53.9v-0.3l5-6.5h-4.8v-0.5h5.6v0.3l-5,6.5h5v0.5H254.5z"/>
			<path fill="#919295" d="M276.7,53.9l-0.9-2.1h-4.3l-0.9,2.1h-0.6l3.4-7.4h0.5l3.4,7.4H276.7z M273.6,47.1l-1.9,4.2h3.9L273.6,47.1z"/>
			<path fill="#919295" d="M292.5,53.9l-2.3-3h-2.4v3h-0.5v-7.3h3.1c1.6,0,2.6,0.9,2.6,2.1v0c0,1.2-0.9,1.9-2.2,2.1l2.4,3.1H292.5z M292.4,48.6c0-1-0.8-1.6-2.1-1.6h-2.5v3.3h2.5C291.5,50.3,292.4,49.7,292.4,48.6L292.4,48.6z"/>
		</g>
	</g>
</svg>
